<svg width="70" height="70" viewBox="0 0 70 70" fill="none" xmlns="http://www.w3.org/2000/svg">
<path fill-rule="evenodd" clip-rule="evenodd" d="M21.875 13.8542C21.875 13.2169 28.4608 8.75 35 8.75C41.5392 8.75 48.125 13.2169 48.125 13.8542C48.125 16.1292 47.8829 17.4767 47.6787 18.2102C47.5431 18.6915 47.0925 18.9583 46.5923 18.9583H23.4077C22.9075 18.9583 22.4569 18.6915 22.3212 18.2102C22.1171 17.4767 21.875 16.1292 21.875 13.8542ZM32.8125 13.125C32.4257 13.125 32.0548 13.2786 31.7813 13.5521C31.5078 13.8256 31.3542 14.1966 31.3542 14.5833C31.3542 14.9701 31.5078 15.341 31.7813 15.6145C32.0548 15.888 32.4257 16.0417 32.8125 16.0417H37.1875C37.5743 16.0417 37.9452 15.888 38.2187 15.6145C38.4922 15.341 38.6458 14.9701 38.6458 14.5833C38.6458 14.1966 38.4922 13.8256 38.2187 13.5521C37.9452 13.2786 37.5743 13.125 37.1875 13.125H32.8125ZM23.3887 28.0262C18.5325 26.5242 19.7575 23.8408 21.6096 21.875H48.7958C50.2775 23.7679 51.0723 26.3215 46.5937 27.8498C46.6424 28.2824 46.6667 28.7214 46.6667 29.1667C46.666 30.7464 46.3446 32.3096 45.7218 33.7614C45.099 35.2133 44.1878 36.5235 43.0435 37.6126C41.8992 38.7018 40.5457 39.5472 39.0649 40.0976C37.5841 40.6481 36.007 40.892 34.4291 40.8147C32.8512 40.7374 31.3055 40.3405 29.8856 39.6479C28.4657 38.9554 27.2013 37.9817 26.169 36.7859C25.1366 35.5901 24.3579 34.1971 23.88 32.6914C23.4021 31.1856 23.235 29.5985 23.3887 28.0262ZM34.6033 29.1667C38.4562 29.1667 41.4429 28.9625 43.7325 28.6067C43.7442 28.7914 43.75 28.9781 43.75 29.1667C43.749 30.3344 43.5142 31.4901 43.0595 32.5658C42.6049 33.6414 41.9395 34.6151 41.1026 35.4295C40.2658 36.244 39.2744 36.8826 38.1868 37.308C37.0993 37.7333 35.9376 37.9366 34.7702 37.9059C33.6029 37.8752 32.4535 37.6112 31.3898 37.1294C30.326 36.6476 29.3695 35.9577 28.5766 35.1005C27.7836 34.2432 27.1703 33.2359 26.7727 32.1379C26.3752 31.0399 26.2014 29.8735 26.2617 28.7073C28.3952 29.0019 31.1296 29.1667 34.6033 29.1667ZM47.2748 50.4583C45.9559 48.4001 44.1403 46.7069 41.9952 45.5346C39.8501 44.3623 37.4445 43.7486 35 43.75C32.5545 43.7482 30.1478 44.362 28.0019 45.5348C25.856 46.7077 24.0398 48.4019 22.7208 50.4612C22.2302 49.7082 21.4787 49.1629 20.6106 48.93L17.7931 48.176C16.8593 47.9257 15.8642 48.0565 15.0268 48.5398C14.1894 49.023 13.5782 49.8191 13.3277 50.7529L12.196 54.9792C12.0721 55.4417 12.0405 55.924 12.103 56.3988C12.1655 56.8735 12.3209 57.3313 12.5603 57.7459C12.7997 58.1606 13.1185 58.524 13.4984 58.8155C13.8783 59.1069 14.3119 59.3207 14.7744 59.4446L17.5904 60.2C18.0642 60.3269 18.5586 60.3569 19.0443 60.2883C19.5299 60.2196 19.9967 60.0537 20.4167 59.8004C20.4178 60.1872 20.5726 60.5577 20.8469 60.8303C21.1212 61.103 21.4926 61.2555 21.8794 61.2544C22.2661 61.2532 22.6366 61.0985 22.9093 60.8241C23.182 60.5498 23.3345 60.1784 23.3333 59.7917V58.3333C23.3333 57.7772 23.3712 57.2313 23.4471 56.6956L31.0362 58.73C31.3885 59.484 31.9486 60.1219 32.6507 60.5689C33.3527 61.0158 34.1677 61.2532 35 61.2532C35.8323 61.2532 36.6472 61.0158 37.3493 60.5689C38.0514 60.1219 38.6115 59.484 38.9637 58.73L46.5529 56.6956C46.6278 57.2313 46.6657 57.7772 46.6667 58.3333V59.7917C46.6647 60.1784 46.8165 60.5501 47.0886 60.825C47.3608 61.0999 47.7309 61.2554 48.1177 61.2573C48.5045 61.2592 48.8762 61.1074 49.151 60.8353C49.4259 60.5632 49.5814 60.193 49.5833 59.8062C50.4 60.2962 51.4092 60.4669 52.4023 60.2L55.2198 59.446C55.6823 59.3222 56.1159 59.1084 56.4958 58.8169C56.8757 58.5255 57.1944 58.162 57.4339 57.7474C57.6733 57.3327 57.8287 56.8749 57.8912 56.4002C57.9537 55.9255 57.9221 55.4431 57.7981 54.9806L56.665 50.7544C56.4145 49.8205 55.8033 49.0245 54.9659 48.5412C54.1285 48.058 53.1334 47.9271 52.1996 48.1775L49.3821 48.9315C48.516 49.1635 47.7657 49.708 47.2748 50.4583ZM24.2127 53.8796C25.0009 51.9748 26.2792 50.3125 27.9177 49.0616C29.5562 47.8106 31.4965 47.0155 33.5417 46.7571V52.7494C32.8877 52.9805 32.298 53.3637 31.8213 53.8676C31.3446 54.3714 30.9946 54.9813 30.8 55.6471L24.2127 53.8796ZM45.7873 53.8796C44.9991 51.9748 43.7208 50.3125 42.0823 49.0616C40.4438 47.8106 38.5035 47.0155 36.4583 46.7571V52.7494C37.7767 53.216 38.8062 54.2952 39.2 55.6471L45.7873 53.8796ZM35 58.3333C35.3868 58.3333 35.7577 58.1797 36.0312 57.9062C36.3047 57.6327 36.4583 57.2618 36.4583 56.875C36.4583 56.4882 36.3047 56.1173 36.0312 55.8438C35.7577 55.5703 35.3868 55.4167 35 55.4167C34.6132 55.4167 34.2423 55.5703 33.9688 55.8438C33.6953 56.1173 33.5417 56.4882 33.5417 56.875C33.5417 57.2618 33.6953 57.6327 33.9688 57.9062C34.2423 58.1797 34.6132 58.3333 35 58.3333Z" fill="#EF4B48"/>
</svg>
