<svg width="27" height="34" viewBox="0 0 27 34" fill="none" xmlns="http://www.w3.org/2000/svg">
<path d="M23.7605 15.375C23.3292 14.8125 22.8042 14.325 22.3167 13.8375C21.0605 12.7125 19.6355 11.9063 18.4355 10.725C15.6417 7.9875 15.023 3.46875 16.8042 0C15.023 0.43125 13.4667 1.40625 12.1355 2.475C7.27923 6.375 5.36673 13.2563 7.65423 19.1625C7.72923 19.35 7.80423 19.5375 7.80423 19.7812C7.80423 20.1938 7.52298 20.5688 7.14798 20.7188C6.71673 20.9062 6.26673 20.7938 5.91048 20.4938C5.80406 20.4046 5.71507 20.2965 5.64798 20.175C3.52923 17.4937 3.19173 13.65 4.61673 10.575C1.48548 13.125 -0.220769 17.4375 0.0229814 21.5063C0.135481 22.4438 0.247981 23.3813 0.566731 24.3188C0.829231 25.4438 1.33548 26.5688 1.89798 27.5625C3.92298 30.8063 7.42923 33.1312 11.198 33.6C15.2105 34.1063 19.5042 33.375 22.5792 30.6C26.0105 27.4875 27.2105 22.5 25.448 18.225L25.2042 17.7375C24.8105 16.875 23.7605 15.375 23.7605 15.375ZM17.8355 27.1875C17.3105 27.6375 16.448 28.125 15.773 28.3125C13.673 29.0625 11.573 28.0125 10.3355 26.775C12.5667 26.25 13.898 24.6 14.2917 22.9312C14.6105 21.4312 14.0105 20.1938 13.7667 18.75C13.5417 17.3625 13.5792 16.1812 14.0855 14.8875C14.4417 15.6 14.8167 16.3125 15.2667 16.875C16.7105 18.75 18.9792 19.575 19.4667 22.125C19.5417 22.3875 19.5792 22.65 19.5792 22.9312C19.6355 24.4688 18.9605 26.1562 17.8355 27.1875Z" fill="#EF4B48"/>
</svg>
