<svg width="145" height="32" viewBox="0 0 145 32" fill="none" xmlns="http://www.w3.org/2000/svg">
<path d="M13.6354 10.1211V21.7453L24.6272 15.9198L13.6354 10.1211Z" fill="#EF4B48"/>
<path d="M16.8652 0C7.81822 0 0.499634 7.14096 0.499634 15.9464C0.499634 24.7517 7.81822 31.8927 16.8652 31.8927C25.8851 31.8927 33.2037 24.7517 33.2037 15.9464C33.2037 7.14096 25.8851 0 16.8652 0ZM7.7102 15.7047C7.7102 10.7383 11.8421 6.71143 16.9192 6.71143C21.9963 6.71143 26.1282 10.7383 26.1282 15.7047C26.1282 20.6712 21.9963 24.6981 16.9192 24.6981C11.8421 24.6981 7.7102 20.6712 7.7102 15.7047Z" fill="#1B1B1B"/>
<path d="M46.6144 5.8514L41.6451 4.05273V17.9588H46.6144V5.8514Z" fill="#EF4B48"/>
<path d="M63.8328 5.04749L66.8306 10.6314H59.2416L60.781 14.9267L69.0721 14.8999L70.6926 17.9334L76.5801 17.9066L66.8306 0.0273438H59.6467L50.3024 17.9334H56.2439L63.8328 5.04749Z" fill="#EF4B48"/>
<path d="M82.7866 10.6309H84.326L92.2931 17.9329H99.855L88.8902 8.34902L99.1528 0.107383L91.6719 0.0805372L84.164 6.25505L82.7866 6.2819V0H77.1422V17.8793H82.7866V10.6309Z" fill="#EF4B48"/>
<path d="M100.271 1.63763C101.486 0.241651 103.512 0.107422 103.512 0.107422L116.016 0.134268C116.016 0.134268 117.69 0.349033 118.825 1.36917C119.959 2.38931 120.337 4.26851 120.337 4.26851H105.375C105.375 4.26851 104.862 4.40274 104.43 4.80543C103.998 5.20811 103.809 5.79872 103.809 5.79872L103.755 11.8122C103.755 11.8122 103.809 12.6981 104.295 13.1813C104.808 13.6914 105.645 13.7987 105.645 13.7987L120.364 13.7182C120.364 13.7182 120.148 15.3021 119.122 16.3222C118.014 17.5035 116.205 17.8256 116.205 17.8256L103.674 17.9061C103.674 17.9061 101.783 17.9061 100.379 16.4296C99.0016 15.0068 99.0016 13.5571 99.0016 13.5571L99.0286 4.34905C99.0286 4.3222 99.1906 2.7383 100.271 1.63763Z" fill="#EF4B48"/>
<path d="M127.27 10.4962L138.721 0.106924L144.473 0.0800781L144.5 17.9325L138.721 17.9056V7.32843L127.27 17.9325H122.166V0.0800781H127.27V10.4962Z" fill="#EF4B48"/>
<path d="M54.2854 0.0273438H34.0573V4.4032H54.2854V0.0273438Z" fill="#EF4B48"/>
<path d="M50.9105 31.8661L50.8835 24.752L47.3456 30.6849H46.6974L43.1595 24.8057V31.8661H41.8092V22.1211H42.9705L47.0755 28.9936L51.1266 22.1211H52.2879L52.3149 31.8929H50.9105V31.8661Z" fill="#EF4B48"/>
<path d="M70.2929 29.4246H65.0806L64.0003 31.8676H62.569L67.0251 22.0957H68.4025L72.8586 31.8676H71.3732L70.2929 29.4246ZM69.8068 28.3239L67.7003 23.5454L65.5937 28.3239H69.8068Z" fill="#EF4B48"/>
<path d="M84.758 31.3296C83.9748 30.9001 83.3536 30.3095 82.8945 29.5578C82.4354 28.8061 82.2194 27.9471 82.2194 27.0075C82.2194 26.0679 82.4354 25.2088 82.8945 24.4571C83.3536 23.7055 83.9748 23.1148 84.758 22.6853C85.5412 22.2558 86.4324 22.041 87.4317 22.041C88.1879 22.041 88.8901 22.1752 89.5382 22.4169C90.1864 22.6853 90.7265 23.0612 91.1586 23.5444L90.2404 24.4303C89.5112 23.6518 88.593 23.2759 87.4857 23.2759C86.7565 23.2759 86.1084 23.437 85.5142 23.7591C84.92 24.0813 84.4609 24.5377 84.1368 25.1014C83.8128 25.6652 83.6507 26.3095 83.6507 27.0075C83.6507 27.7055 83.8128 28.3498 84.1368 28.9135C84.4609 29.4773 84.92 29.9337 85.5142 30.2558C86.1084 30.578 86.7565 30.739 87.4857 30.739C88.593 30.739 89.5112 30.3364 90.2404 29.5578L91.1586 30.4437C90.6995 30.9538 90.1594 31.3296 89.5382 31.5981C88.8901 31.8666 88.1879 32.0008 87.4317 32.0008C86.4324 31.9739 85.5412 31.7592 84.758 31.3296Z" fill="#EF4B48"/>
<path d="M108.305 23.3292H104.929V31.8661H103.552V23.3292H100.203V22.1211H108.305V23.3292Z" fill="#EF4B48"/>
<path d="M125.75 30.658V31.8661H118.62V22.1211H125.561V23.3292H120.024V26.309H124.939V27.4902H120.024V30.6312H125.75V30.658Z" fill="#EF4B48"/>
<path d="M143.369 23.007C144.099 23.6245 144.477 24.4298 144.477 25.5037C144.477 26.5775 144.099 27.3829 143.369 28.0003C142.64 28.6178 141.641 28.9131 140.372 28.9131H137.941V31.8661H136.537V22.1211H140.372C141.641 22.1211 142.64 22.4164 143.369 23.007ZM142.343 27.1412C142.802 26.7654 143.045 26.2285 143.045 25.5305C143.045 24.8325 142.802 24.2956 142.343 23.8929C141.884 23.5171 141.209 23.3292 140.318 23.3292H137.941V27.705H140.318C141.209 27.705 141.884 27.5171 142.343 27.1412Z" fill="#EF4B48"/>
</svg>
