<svg width="70" height="70" viewBox="0 0 70 70" fill="none" xmlns="http://www.w3.org/2000/svg">
<path d="M13.75 14.9833C10.9803 17.6637 8.77826 20.8741 7.27503 24.4232C5.7718 27.9723 4.9981 31.7877 5 35.642C5 51.6166 18.0579 64.5666 34.1667 64.5666C41.7914 64.585 49.1202 61.6168 54.5833 56.2979" stroke="#EF4B48" stroke-width="1.5"/>
<path d="M44.375 47.0667C42.5754 57.3683 38.95 64.5667 34.1667 64.5667C27.7208 64.5667 22.5 51.5087 22.5 35.4C22.5 31.8096 22.7596 28.3708 23.235 25.1917" stroke="#EF4B48" stroke-width="1.5" stroke-linecap="round"/>
<path d="M5 35.4H34.1667" stroke="#EF4B48" stroke-width="1.5" stroke-linecap="round" stroke-linejoin="round"/>
<path d="M53.8333 55.5834C56.603 52.903 58.805 49.6926 60.3083 46.1435C61.8115 42.5944 62.5852 38.779 62.5833 34.9247C62.5833 18.9501 49.5254 6.0001 33.4166 6.0001C25.7919 5.98173 18.4631 8.94989 13 14.2689" stroke="#EF4B48" stroke-width="1.5"/>
<path d="M23.1127 23.5698C24.9123 13.2682 28.5377 6.06982 33.3211 6.06982C39.7669 6.06982 44.9877 19.1277 44.9877 35.2365C44.9877 38.8269 44.7281 42.2657 44.2527 45.4448" stroke="#EF4B48" stroke-width="1.5" stroke-linecap="round"/>
<path d="M62.6641 34.9734H33.4974" stroke="#EF4B48" stroke-width="1.5" stroke-linecap="round" stroke-linejoin="round"/>
<path d="M5 6.23328L63.3333 64.5666" stroke="#EF4B48" stroke-width="1.5" stroke-linecap="round" stroke-linejoin="round"/>
</svg>
