<svg width="45" height="45" viewBox="0 0 45 45" fill="none" xmlns="http://www.w3.org/2000/svg">
<path d="M36.5344 37.7887L24.7931 26.0475C23.8556 26.8462 22.7775 27.4644 21.5588 27.9019C20.34 28.3394 19.115 28.5581 17.8838 28.5581C14.8863 28.5581 12.3463 27.5169 10.2638 25.4344C8.18126 23.3506 7.14001 20.81 7.14001 17.8125C7.14001 14.815 8.18126 12.275 10.2638 10.1925C12.3463 8.10999 14.8863 7.06812 17.8838 7.06687C20.8813 7.06562 23.4219 8.10749 25.5056 10.1925C27.5894 12.2775 28.6306 14.8175 28.6294 17.8125C28.6294 19.115 28.3988 20.3756 27.9375 21.5944C27.4763 22.8131 26.87 23.8556 26.1188 24.7219L37.86 36.4612L36.5344 37.7887ZM17.8856 26.6812C20.3731 26.6812 22.4731 25.825 24.1856 24.1125C25.8981 22.4 26.7544 20.2994 26.7544 17.8106C26.7544 15.3219 25.8981 13.2219 24.1856 11.5106C22.4731 9.79937 20.3731 8.94312 17.8856 8.94187C15.3981 8.94062 13.2975 9.79687 11.5838 11.5106C9.87001 13.2244 9.01376 15.3244 9.01501 17.8106C9.01626 20.2969 9.87251 22.3969 11.5838 24.1106C13.295 25.8244 15.395 26.6806 17.8838 26.6794" fill="black"/>
</svg>
