<svg width="27" height="27" viewBox="0 0 27 27" fill="none" xmlns="http://www.w3.org/2000/svg">
<path d="M19.8777 19.8778L22.4176 22.4177C22.7673 22.7674 23.1678 22.8458 23.6191 22.6529C24.0704 22.46 24.2957 22.1148 24.2949 21.6171V4.41737C24.2949 3.81 24.0785 3.29023 23.6456 2.85808C23.2127 2.42592 22.693 2.20948 22.0863 2.20874H4.41727C3.8099 2.20874 3.28977 2.42519 2.85687 2.85808C2.42398 3.29097 2.2079 3.81073 2.20864 4.41737V17.6692C2.20864 18.2765 2.42472 18.7967 2.85687 19.2296C3.28903 19.6624 3.80916 19.8785 4.41727 19.8778H19.8777ZM20.8164 17.6692H4.41727V4.41737H22.0863V18.9115L20.8164 17.6692ZM16.8817 11.8295C16.6704 11.6182 16.5647 11.3562 16.5647 11.0433C16.5647 10.7304 16.6708 10.4683 16.8828 10.257C17.0948 10.0457 17.3569 9.93968 17.6691 9.93895C17.9812 9.93821 18.2433 10.0442 18.4553 10.257C18.6674 10.4698 18.7734 10.7318 18.7734 11.0433C18.7734 11.3547 18.6674 11.6171 18.4553 11.8306C18.2433 12.0441 17.9812 12.1498 17.6691 12.1476C17.3569 12.1454 17.0944 12.0394 16.8817 11.8295ZM12.4644 11.8295C12.2531 11.619 12.1475 11.3569 12.1475 11.0433C12.1475 10.7296 12.2535 10.4675 12.4655 10.257C12.6775 10.0464 12.9396 9.94042 13.2518 9.93895C13.5639 9.93747 13.826 10.0435 14.0381 10.257C14.2501 10.4705 14.3561 10.7326 14.3561 11.0433C14.3561 11.3539 14.2501 11.6164 14.0381 11.8306C13.826 12.0449 13.5639 12.1505 13.2518 12.1476C12.9396 12.1446 12.6772 12.0386 12.4644 11.8295ZM8.04716 11.8295C7.83587 11.619 7.73022 11.3569 7.73022 11.0433C7.73022 10.7296 7.83623 10.4675 8.04826 10.257C8.26029 10.0464 8.52238 9.94042 8.83453 9.93895C9.14669 9.93747 9.40878 10.0435 9.6208 10.257C9.83283 10.4705 9.93885 10.7326 9.93885 11.0433C9.93885 11.3539 9.83283 11.6164 9.6208 11.8306C9.40878 12.0449 9.14669 12.1505 8.83453 12.1476C8.52238 12.1446 8.25992 12.0386 8.04716 11.8295Z" fill="white"/>
</svg>
